<svg width="24" height="24" viewBox="0 0 24 24" fill="none" xmlns="http://www.w3.org/2000/svg">
<path d="M14.2495 5C14.2495 2.92893 15.9284 1.25 17.9995 1.25C20.0706 1.25 21.7495 2.92893 21.7495 5C21.7495 7.07107 20.0706 8.75 17.9995 8.75C15.9284 8.75 14.2495 7.07107 14.2495 5Z" fill="black"/>
<path d="M2.24951 19C2.24951 16.9289 3.92844 15.25 5.99951 15.25C8.07058 15.25 9.74951 16.9289 9.74951 19C9.74951 21.0711 8.07058 22.75 5.99951 22.75C3.92844 22.75 2.24951 21.0711 2.24951 19Z" fill="black"/>
<path fill-rule="evenodd" clip-rule="evenodd" d="M3.99951 8.5C3.99951 6.01472 6.01423 4 8.49951 4H11.9995C12.5518 4 12.9995 4.44772 12.9995 5C12.9995 5.55228 12.5518 6 11.9995 6H8.49951C7.1188 6 5.99951 7.11929 5.99951 8.5C5.99951 9.88071 7.1188 11 8.49951 11H15.4995C17.9848 11 19.9995 13.0147 19.9995 15.5C19.9995 17.9853 17.9848 20 15.4995 20H11.9995C11.4472 20 10.9995 19.5523 10.9995 19C10.9995 18.4477 11.4472 18 11.9995 18H15.4995C16.8802 18 17.9995 16.8807 17.9995 15.5C17.9995 14.1193 16.8802 13 15.4995 13H8.49951C6.01423 13 3.99951 10.9853 3.99951 8.5Z" fill="black"/>
</svg>
