<svg width="20" height="20" viewBox="0 0 20 20" fill="none" xmlns="http://www.w3.org/2000/svg">
<path d="M10.0002 6.66671C10.6523 6.66671 11.2902 6.85802 11.8347 7.21695C12.3792 7.57588 12.8065 8.08666 13.0636 8.68602C13.3207 9.28538 13.3963 9.94699 13.2811 10.5889C13.1659 11.2308 12.8649 11.8248 12.4154 12.2974C11.9659 12.7699 11.3877 13.1002 10.7523 13.2474C10.117 13.3946 9.45242 13.3521 8.84095 13.1253C8.22949 12.8985 7.69798 12.4973 7.31228 11.9714C6.92657 11.4455 6.7036 10.8181 6.671 10.1667L6.66683 10L6.671 9.83337C6.71376 8.97924 7.08317 8.17422 7.70282 7.58481C8.32247 6.9954 9.14496 6.66671 10.0002 6.66671Z" fill="white"/>
<path d="M10.0002 3.33337C10.2043 3.3334 10.4013 3.40834 10.5538 3.54397C10.7063 3.6796 10.8038 3.8665 10.8277 4.06921L10.8335 4.17504C10.8333 4.38744 10.7519 4.59173 10.6061 4.74618C10.4603 4.90063 10.261 4.99357 10.049 5.00602C9.83697 5.01847 9.62818 4.94948 9.4653 4.81315C9.30243 4.67683 9.19775 4.48345 9.17266 4.27254L9.16683 4.16671C9.16683 3.94569 9.25463 3.73373 9.41091 3.57745C9.56719 3.42117 9.77915 3.33337 10.0002 3.33337Z" fill="white"/>
<path d="M14.1668 5.00004C14.3709 5.00007 14.5679 5.075 14.7205 5.21064C14.873 5.34627 14.9704 5.53316 14.9943 5.73587L15.0002 5.84171C14.9999 6.05411 14.9186 6.2584 14.7728 6.41285C14.627 6.56729 14.4277 6.66024 14.2157 6.67268C14.0036 6.68513 13.7948 6.61615 13.632 6.47982C13.4691 6.34349 13.3644 6.15012 13.3393 5.93921L13.3335 5.83337C13.3335 5.61236 13.4213 5.4004 13.5776 5.24412C13.7339 5.08784 13.9458 5.00004 14.1668 5.00004Z" fill="white"/>
<path d="M15.8335 9.16671C16.0376 9.16673 16.2346 9.24167 16.3871 9.3773C16.5397 9.51294 16.6371 9.69983 16.661 9.90254L16.6668 10.0084C16.6666 10.2208 16.5853 10.4251 16.4395 10.5795C16.2936 10.734 16.0944 10.8269 15.8823 10.8394C15.6703 10.8518 15.4615 10.7828 15.2986 10.6465C15.1358 10.5102 15.0311 10.3168 15.006 10.1059L15.0002 10C15.0002 9.77903 15.088 9.56707 15.2442 9.41079C15.4005 9.2545 15.6125 9.16671 15.8335 9.16671Z" fill="white"/>
<path d="M14.1668 13.3334C14.3709 13.3334 14.5679 13.4083 14.7205 13.544C14.873 13.6796 14.9704 13.8665 14.9943 14.0692L15.0002 14.175C14.9999 14.3874 14.9186 14.5917 14.7728 14.7462C14.627 14.9006 14.4277 14.9936 14.2157 15.006C14.0036 15.0185 13.7948 14.9495 13.632 14.8132C13.4691 14.6768 13.3644 14.4835 13.3393 14.2725L13.3335 14.1667C13.3335 13.9457 13.4213 13.7337 13.5776 13.5775C13.7339 13.4212 13.9458 13.3334 14.1668 13.3334Z" fill="white"/>
<path d="M10.0002 15C10.2043 15.0001 10.4013 15.075 10.5538 15.2106C10.7063 15.3463 10.8038 15.5332 10.8277 15.7359L10.8335 15.8417C10.8333 16.0541 10.7519 16.2584 10.6061 16.4128C10.4603 16.5673 10.261 16.6602 10.049 16.6727C9.83697 16.6851 9.62818 16.6161 9.4653 16.4798C9.30243 16.3435 9.19775 16.1501 9.17266 15.9392L9.16683 15.8334C9.16683 15.6124 9.25463 15.4004 9.41091 15.2441C9.56719 15.0878 9.77915 15 10.0002 15Z" fill="white"/>
<path d="M5.8335 13.3334C6.03761 13.3334 6.23461 13.4083 6.38714 13.544C6.53967 13.6796 6.63712 13.8665 6.661 14.0692L6.66683 14.175C6.66659 14.3874 6.58526 14.5917 6.43946 14.7462C6.29365 14.9006 6.09437 14.9936 5.88233 15.006C5.6703 15.0185 5.46151 14.9495 5.29864 14.8132C5.13576 14.6768 5.03108 14.4835 5.006 14.2725L5.00016 14.1667C5.00016 13.9457 5.08796 13.7337 5.24424 13.5775C5.40052 13.4212 5.61248 13.3334 5.8335 13.3334Z" fill="white"/>
<path d="M4.16683 9.16671C4.37094 9.16673 4.56794 9.24167 4.72047 9.3773C4.873 9.51294 4.97045 9.69983 4.99433 9.90254L5.00016 10.0084C4.99993 10.2208 4.9186 10.4251 4.77279 10.5795C4.62698 10.734 4.4277 10.8269 4.21567 10.8394C4.00363 10.8518 3.79485 10.7828 3.63197 10.6465C3.46909 10.5102 3.36442 10.3168 3.33933 10.1059L3.3335 10C3.3335 9.77903 3.42129 9.56707 3.57757 9.41079C3.73385 9.2545 3.94582 9.16671 4.16683 9.16671Z" fill="white"/>
<path d="M5.8335 5.00004C6.03761 5.00007 6.23461 5.075 6.38714 5.21064C6.53967 5.34627 6.63712 5.53316 6.661 5.73587L6.66683 5.84171C6.66659 6.05411 6.58526 6.2584 6.43946 6.41285C6.29365 6.56729 6.09437 6.66024 5.88233 6.67268C5.6703 6.68513 5.46151 6.61615 5.29864 6.47982C5.13576 6.34349 5.03108 6.15012 5.006 5.93921L5.00016 5.83337C5.00016 5.61236 5.08796 5.4004 5.24424 5.24412C5.40052 5.08784 5.61248 5.00004 5.8335 5.00004Z" fill="white"/>
</svg>
